<svg xmlns:dc="http://purl.org/dc/elements/1.1/" xmlns:cc="http://creativecommons.org/ns#" xmlns:rdf="http://www.w3.org/1999/02/22-rdf-syntax-ns#" xmlns:svg="http://www.w3.org/2000/svg" xmlns="http://www.w3.org/2000/svg" xmlns:sodipodi="http://sodipodi.sourceforge.net/DTD/sodipodi-0.dtd" xmlns:inkscape="http://www.inkscape.org/namespaces/inkscape" viewBox="0 0 32 40.00000125" version="1.1" x="0px" y="0px"><g transform="translate(0,-1020.3622)"><path style="color:#000000;font-style:normal;font-variant:normal;font-weight:normal;font-stretch:normal;font-size:medium;line-height:normal;font-family:sans-serif;text-indent:0;text-align:start;text-decoration:none;text-decoration-line:none;text-decoration-style:solid;text-decoration-color:#000000;letter-spacing:normal;word-spacing:normal;text-transform:none;direction:ltr;block-progression:tb;writing-mode:lr-tb;baseline-shift:baseline;text-anchor:start;white-space:normal;clip-rule:nonzero;display:inline;overflow:visible;visibility:visible;opacity:1;isolation:auto;mix-blend-mode:normal;color-interpolation:sRGB;color-interpolation-filters:linearRGB;solid-color:#000000;solid-opacity:1;fill:#000000;fill-opacity:1;fill-rule:evenodd;stroke:none;stroke-width:0.99999982px;stroke-linecap:round;stroke-linejoin:round;stroke-miterlimit:4;stroke-dasharray:none;stroke-dashoffset:0;stroke-opacity:1;color-rendering:auto;image-rendering:auto;shape-rendering:auto;text-rendering:auto;enable-background:accumulate" d="M 15.984375 7.515625 C 13.653014 7.515625 11.755868 9.4283313 11.755859 11.769531 C 11.755864 13.087987 12.370447 14.254123 13.3125 15.035156 C 12.197758 15.120519 11.175736 15.526337 10.330078 16.160156 C 10.001738 16.08066 9.6612004 16.023438 9.3007812 16.023438 L 9.2089844 16.023438 C 9.6949079 15.48535 10.000002 14.779762 10 14 C 10.000005 12.339 8.6533329 10.978516 7 10.978516 C 5.3466671 10.978516 3.9999949 12.339 4 14 C 3.9999975 14.819062 4.3311723 15.561128 4.8613281 16.107422 C 2.6663101 16.508203 1 18.437474 1 20.761719 L 1 23.501953 A 0.50004991 0.50004991 0 0 0 1.5 24.001953 L 8.0117188 24.001953 L 8.0117188 24.482422 A 0.50004991 0.50004991 0 0 0 8.5117188 24.982422 L 11.375 24.982422 A 0.50004991 0.50004991 0 0 0 11.638672 24.982422 L 20.359375 24.982422 A 0.50004991 0.50004991 0 0 0 20.623047 24.982422 L 23.488281 24.982422 A 0.50004991 0.50004991 0 0 0 23.988281 24.482422 L 23.988281 24.001953 L 30.5 24.001953 A 0.50004991 0.50004991 0 0 0 31 23.501953 L 31 20.761719 C 31 18.437474 29.33369 16.508203 27.138672 16.107422 C 27.668828 15.561128 28.000002 14.819062 28 14 C 28.000005 12.339 26.653333 10.978516 25 10.978516 C 23.346667 10.978516 21.999995 12.339 22 14 C 21.999998 14.779762 22.305092 15.48535 22.791016 16.023438 L 22.699219 16.023438 C 22.33861 16.023438 21.998115 16.080838 21.669922 16.160156 C 20.817417 15.521217 19.785375 15.115981 18.660156 15.035156 C 19.601749 14.254111 20.214839 13.087174 20.214844 11.769531 C 20.214835 9.4283312 18.315736 7.515625 15.984375 7.515625 z M 15.984375 8.515625 C 17.771798 8.515625 19.214837 9.9652312 19.214844 11.769531 C 19.214837 13.547395 17.811741 14.972254 16.060547 15.013672 L 15.908203 15.013672 C 14.157064 14.972254 12.755866 13.547395 12.755859 11.769531 C 12.755866 9.9652312 14.196952 8.515625 15.984375 8.515625 z M 7 11.978516 C 8.1079591 11.978516 9.0000034 12.8746 9 14 C 9.0000034 15.1255 8.1079591 16.023438 7 16.023438 C 5.8920409 16.023438 4.9999966 15.1255 5 14 C 4.9999966 12.8746 5.8920409 11.978516 7 11.978516 z M 25 11.978516 C 26.107959 11.978516 27.000003 12.8746 27 14 C 27.000003 15.1255 26.107959 16.023438 25 16.023438 C 23.892041 16.023438 22.999997 15.1255 23 14 C 22.999997 12.8746 23.892041 11.978516 25 11.978516 z M 13.753906 16.013672 L 14.998047 16.013672 L 14.501953 21.958984 A 0.50005 0.50005 0 0 0 14.646484 22.353516 L 15.646484 23.353516 A 0.50005 0.50005 0 0 0 16.353516 23.353516 L 17.353516 22.353516 A 0.50005 0.50005 0 0 0 17.498047 21.958984 L 17.001953 16.013672 L 18.246094 16.013672 C 19.352101 16.013672 20.352718 16.402843 21.15625 17.033203 A 0.50004991 0.50004991 0 0 0 21.158203 17.035156 A 0.50004991 0.50004991 0 0 0 21.214844 17.091797 C 21.69941 17.486782 22.100476 17.973629 22.402344 18.523438 C 22.443838 18.601029 22.490059 18.675704 22.527344 18.755859 C 22.578138 18.8621 22.623107 18.971526 22.666016 19.082031 C 22.748805 19.301625 22.82265 19.525555 22.873047 19.759766 C 22.885021 19.813707 22.89223 19.869162 22.902344 19.923828 C 22.952709 20.204787 22.988281 20.492523 22.988281 20.789062 L 22.988281 21.789062 L 22.988281 23.501953 L 22.988281 23.982422 L 20.992188 23.982422 L 20.992188 21.087891 A 0.50004991 0.50004991 0 0 0 20.484375 20.580078 A 0.50004991 0.50004991 0 0 0 19.992188 21.087891 L 19.992188 23.982422 L 12.007812 23.982422 L 12.007812 21.087891 A 0.50004991 0.50004991 0 0 0 11.5 20.580078 A 0.50004991 0.50004991 0 0 0 11.007812 21.087891 L 11.007812 23.982422 L 9.0117188 23.982422 L 9.0117188 23.501953 L 9.0117188 21.789062 L 9.0117188 20.789062 C 9.0117188 20.492534 9.0472903 20.20478 9.0976562 19.923828 C 9.1077701 19.869164 9.1149786 19.813706 9.1269531 19.759766 C 9.1773507 19.52556 9.2511951 19.301623 9.3339844 19.082031 C 9.3768929 18.971525 9.421862 18.862102 9.4726562 18.755859 C 9.5099414 18.675705 9.5561614 18.601029 9.5976562 18.523438 C 9.8995253 17.973616 10.300596 17.486782 10.785156 17.091797 A 0.50004991 0.50004991 0 0 0 10.84375 17.033203 C 11.647283 16.40283 12.647904 16.013672 13.753906 16.013672 z M 16 16.019531 A 0.50005 0.50005 0 0 0 16.001953 16.041016 L 16.482422 21.808594 L 16 22.291016 L 15.517578 21.808594 L 15.998047 16.041016 A 0.50005 0.50005 0 0 0 16 16.019531 z M 5.7011719 17.023438 L 9.3007812 17.023438 C 9.3323965 17.023438 9.3622539 17.03119 9.3925781 17.037109 C 8.5333895 18.046762 8.0117188 19.355956 8.0117188 20.789062 L 8.0117188 21.789062 L 8.0117188 23.001953 L 5 23.001953 L 5 20.507812 A 0.50004991 0.50004991 0 0 0 4.4921875 20.001953 A 0.50004991 0.50004991 0 0 0 4 20.507812 L 4 23.001953 L 2 23.001953 L 2 20.761719 C 2 18.679919 3.6447329 17.023438 5.7011719 17.023438 z M 22.699219 17.023438 L 26.298828 17.023438 C 28.355267 17.023438 30 18.679919 30 20.761719 L 30 23.001953 L 28 23.001953 L 28 20.757812 A 0.50004991 0.50004991 0 0 0 27.492188 20.25 A 0.50004991 0.50004991 0 0 0 27 20.757812 L 27 23.001953 L 23.988281 23.001953 L 23.988281 21.789062 L 23.988281 20.789062 C 23.988281 19.355911 23.466612 18.046753 22.607422 17.037109 C 22.637749 17.031546 22.667625 17.023438 22.699219 17.023438 z " transform="translate(0,1020.3622)"/></g><text x="0" y="47.000001" fill="#000000" font-size="5px" font-weight="bold" font-family="'Helvetica Neue', Helvetica, Arial-Unicode, Arial, Sans-serif">Created by Chameleon Design</text><text x="0" y="52.000001" fill="#000000" font-size="5px" font-weight="bold" font-family="'Helvetica Neue', Helvetica, Arial-Unicode, Arial, Sans-serif">from the Noun Project</text></svg>